<svg xmlns="http://www.w3.org/2000/svg" viewBox="0 0 400 240" width="400" height="240">
  <defs>
    <linearGradient id="bg" x1="0%" y1="0%" x2="100%" y2="100%">
      <stop offset="0%" style="stop-color:#0d1117"/>
      <stop offset="100%" style="stop-color:#161b22"/>
    </linearGradient>
    <linearGradient id="accent" x1="0%" y1="0%" x2="100%" y2="0%">
      <stop offset="0%" style="stop-color:#ff004f"/>
      <stop offset="100%" style="stop-color:#ff3366"/>
    </linearGradient>
  </defs>
  <rect width="400" height="240" fill="url(#bg)"/>
  <g stroke="#21262d" stroke-width="0.5" opacity="0.6">
    <line x1="0" y1="60" x2="400" y2="60"/>
    <line x1="0" y1="120" x2="400" y2="120"/>
    <line x1="0" y1="180" x2="400" y2="180"/>
    <line x1="100" y1="0" x2="100" y2="240"/>
    <line x1="200" y1="0" x2="200" y2="240"/>
    <line x1="300" y1="0" x2="300" y2="240"/>
  </g>
  <rect x="160" y="20" width="80" height="36" rx="6" fill="url(#accent)"/>
  <text x="200" y="42" text-anchor="middle" fill="#fff" font-family="system-ui, sans-serif" font-size="11" font-weight="600">Gateway</text>
  <rect x="40" y="80" width="70" height="32" rx="5" fill="#238636" opacity="0.9"/>
  <text x="75" y="99" text-anchor="middle" fill="#fff" font-family="system-ui, sans-serif" font-size="10">Orders</text>
  <rect x="130" y="80" width="70" height="32" rx="5" fill="#238636" opacity="0.9"/>
  <text x="165" y="99" text-anchor="middle" fill="#fff" font-family="system-ui, sans-serif" font-size="10">Payments</text>
  <rect x="200" y="80" width="70" height="32" rx="5" fill="#238636" opacity="0.9"/>
  <text x="235" y="99" text-anchor="middle" fill="#fff" font-family="system-ui, sans-serif" font-size="10">Notify</text>
  <rect x="290" y="80" width="70" height="32" rx="5" fill="#238636" opacity="0.9"/>
  <text x="325" y="99" text-anchor="middle" fill="#fff" font-family="system-ui, sans-serif" font-size="10">Postgres</text>
  <rect x="50" y="140" width="90" height="28" rx="4" fill="#f0f6fc" opacity="0.15" stroke="#ff004f" stroke-width="1"/>
  <text x="95" y="158" text-anchor="middle" fill="#ff004f" font-family="system-ui, sans-serif" font-size="9">Prometheus</text>
  <rect x="155" y="140" width="90" height="28" rx="4" fill="#f0f6fc" opacity="0.15" stroke="#ff004f" stroke-width="1"/>
  <text x="200" y="158" text-anchor="middle" fill="#ff004f" font-family="system-ui, sans-serif" font-size="9">Grafana</text>
  <rect x="260" y="140" width="90" height="28" rx="4" fill="#f0f6fc" opacity="0.15" stroke="#ff004f" stroke-width="1"/>
  <text x="305" y="158" text-anchor="middle" fill="#ff004f" font-family="system-ui, sans-serif" font-size="9">Tempo / Loki</text>
  <path d="M 200 56 L 75 80 M 200 56 L 165 80 M 200 56 L 235 80" stroke="#ff004f" stroke-width="1" fill="none" opacity="0.5"/>
  <text x="200" y="210" text-anchor="middle" fill="#8b949e" font-family="system-ui, sans-serif" font-size="10">OTel, k6, Docker</text>
</svg>
